<svg xmlns="http://www.w3.org/2000/svg" viewBox="0 0 1200 820" role="img" aria-labelledby="title desc">
  <title id="title">Reference multipurpose port layout</title>
  <desc id="desc">Clean teaching diagram of a multipurpose artificial port showing the main harbor geometry and operational zones before sedimentation hot spots are added.</desc>

  <rect width="1200" height="820" fill="#f8fafc"/>
  <rect x="20" y="20" width="1160" height="780" rx="18" fill="#ffffff" stroke="#d6deea" stroke-width="2"/>

  <text x="52" y="62" font-size="28" font-family="Arial, sans-serif" fill="#111827" font-weight="700">Reference Multipurpose Port Layout</text>
  <text x="52" y="92" font-size="15" font-family="Arial, sans-serif" fill="#475569">Base layout shown without sediment annotations so students can read the harbor geometry first.</text>

  <rect x="68" y="118" width="140" height="34" rx="17" fill="#dbeafe" stroke="#93c5fd"/>
  <text x="102" y="141" font-size="14" font-family="Arial, sans-serif" fill="#1d4ed8" font-weight="700">OPEN SEA</text>
  <path d="M104 182 l34 0" stroke="#64748b" stroke-width="2"/>
  <path d="M92 192 q18 -4 36 0 t36 0" fill="none" stroke="#64748b" stroke-width="2"/>
  <path d="M92 202 q18 -4 36 0 t36 0" fill="none" stroke="#64748b" stroke-width="2"/>
  <path d="M686 168 l34 0" stroke="#64748b" stroke-width="2"/>
  <path d="M674 178 q18 -4 36 0 t36 0" fill="none" stroke="#64748b" stroke-width="2"/>
  <path d="M674 188 q18 -4 36 0 t36 0" fill="none" stroke="#64748b" stroke-width="2"/>

  <path d="M90 630 C220 624, 315 618, 410 608" fill="none" stroke="#9a3412" stroke-width="4"/>
  <path d="M932 212 C1030 250, 1086 392, 1090 630" fill="none" stroke="#9a3412" stroke-width="4"/>
  <path d="M932 630 C985 632, 1035 636, 1090 646" fill="none" stroke="#9a3412" stroke-width="4"/>

  <path d="M398 370 L562 302" fill="none" stroke="#94a3b8" stroke-width="3" stroke-dasharray="10 8"/>
  <path d="M435 387 L606 319" fill="none" stroke="#94a3b8" stroke-width="3" stroke-dasharray="10 8"/>
  <path d="M472 403 L650 335" fill="none" stroke="#94a3b8" stroke-width="3" stroke-dasharray="10 8"/>

  <path d="M530 250 L720 330 L930 330" fill="none" stroke="#1f2937" stroke-width="8" stroke-linecap="round"/>
  <path d="M350 330 L460 290 L510 352" fill="none" stroke="#1f2937" stroke-width="8" stroke-linecap="round"/>
  <path d="M270 455 L335 365" fill="none" stroke="#1f2937" stroke-width="8" stroke-linecap="round"/>
  <path d="M320 535 L405 535 L460 602" fill="none" stroke="#1f2937" stroke-width="8" stroke-linecap="round"/>
  <path d="M350 330 L320 535" fill="none" stroke="#1f2937" stroke-width="8" stroke-linecap="round"/>
  <path d="M510 352 L460 602" fill="none" stroke="#1f2937" stroke-width="8" stroke-linecap="round"/>

  <circle cx="655" cy="420" r="92" fill="none" stroke="#475569" stroke-width="2.5" stroke-dasharray="9 8"/>

  <rect x="790" y="360" width="120" height="18" rx="7" fill="#cbd5e1" stroke="#64748b" stroke-width="2"/>
  <rect x="820" y="390" width="110" height="18" rx="7" fill="#cbd5e1" stroke="#64748b" stroke-width="2"/>
  <rect x="845" y="420" width="100" height="18" rx="7" fill="#cbd5e1" stroke="#64748b" stroke-width="2"/>

  <rect x="735" y="472" width="210" height="20" rx="8" fill="#cbd5e1" stroke="#64748b" stroke-width="2"/>
  <rect x="640" y="500" width="285" height="20" rx="8" fill="#cbd5e1" stroke="#64748b" stroke-width="2"/>
  <rect x="540" y="526" width="246" height="20" rx="8" fill="#cbd5e1" stroke="#64748b" stroke-width="2"/>

  <rect x="240" y="530" width="18" height="82" rx="6" fill="#cbd5e1" stroke="#64748b" stroke-width="2"/>
  <rect x="278" y="512" width="18" height="100" rx="6" fill="#cbd5e1" stroke="#64748b" stroke-width="2"/>
  <rect x="316" y="494" width="18" height="118" rx="6" fill="#cbd5e1" stroke="#64748b" stroke-width="2"/>

  <rect x="430" y="327" width="30" height="10" rx="4" fill="#cbd5e1" stroke="#64748b" stroke-width="2" transform="rotate(-22 445 332)"/>
  <rect x="459" y="340" width="22" height="10" rx="4" fill="#cbd5e1" stroke="#64748b" stroke-width="2" transform="rotate(-22 470 345)"/>

  <rect x="248" y="570" width="150" height="40" rx="10" fill="#eff6ff" stroke="#bfdbfe"/>
  <text x="262" y="594" font-size="14" font-family="Arial, sans-serif" fill="#1e3a8a" font-weight="700">Fishing port</text>

  <rect x="392" y="304" width="176" height="42" rx="10" fill="#eff6ff" stroke="#bfdbfe"/>
  <text x="406" y="328" font-size="14" font-family="Arial, sans-serif" fill="#1e3a8a" font-weight="700">Oil berth and mooring dolphins</text>

  <rect x="565" y="372" width="176" height="56" rx="10" fill="#eff6ff" stroke="#bfdbfe"/>
  <text x="603" y="395" font-size="15" font-family="Arial, sans-serif" fill="#1e3a8a" font-weight="700">Turning basin</text>
  <text x="585" y="415" font-size="13" font-family="Arial, sans-serif" fill="#475569">Maneuvering circle</text>

  <rect x="826" y="334" width="134" height="36" rx="10" fill="#eff6ff" stroke="#bfdbfe"/>
  <text x="847" y="357" font-size="14" font-family="Arial, sans-serif" fill="#1e3a8a" font-weight="700">General cargo</text>

  <rect x="760" y="446" width="190" height="36" rx="10" fill="#eff6ff" stroke="#bfdbfe"/>
  <text x="790" y="469" font-size="14" font-family="Arial, sans-serif" fill="#1e3a8a" font-weight="700">Container terminal</text>

  <rect x="560" y="548" width="186" height="36" rx="10" fill="#eff6ff" stroke="#bfdbfe"/>
  <text x="600" y="571" font-size="14" font-family="Arial, sans-serif" fill="#1e3a8a" font-weight="700">Passenger terminal</text>

  <rect x="350" y="608" width="158" height="36" rx="10" fill="#eff6ff" stroke="#bfdbfe"/>
  <text x="388" y="631" font-size="14" font-family="Arial, sans-serif" fill="#1e3a8a" font-weight="700">Ship repair area</text>

  <path d="M832 136 L762 206" fill="none" stroke="#111827" stroke-width="3"/>
  <path d="M767 200 l-9 6 l3 -11" fill="#111827"/>
  <text x="806" y="122" font-size="14" font-family="Arial, sans-serif" fill="#111827" font-weight="700">Wind and waves</text>

  <text x="462" y="288" font-size="13" font-family="Arial, sans-serif" fill="#475569" font-weight="700">Entrance approach channel</text>
  <text x="728" y="314" font-size="13" font-family="Arial, sans-serif" fill="#111827" font-weight="700">Outer breakwater</text>
  <text x="246" y="444" font-size="13" font-family="Arial, sans-serif" fill="#111827" font-weight="700">Inner breakwater</text>
  <text x="464" y="625" font-size="13" font-family="Arial, sans-serif" fill="#111827" font-weight="700">Breakwater / quay separator</text>
  <text x="76" y="618" font-size="13" font-family="Arial, sans-serif" fill="#9a3412" font-weight="700">Coastline</text>
  <text x="1002" y="660" font-size="13" font-family="Arial, sans-serif" fill="#9a3412" font-weight="700">Coastline</text>

  <rect x="60" y="690" width="1080" height="74" rx="14" fill="#f8fafc" stroke="#d6deea"/>
  <text x="84" y="718" font-size="13.5" font-family="Arial, sans-serif" fill="#111827" font-weight="700">Key features:</text>
  <text x="84" y="742" font-size="13" font-family="Arial, sans-serif" fill="#334155">General cargo berths, container berths, passenger berths, fishing port, oil berth, ship repair area, turning basin, entrance channel, breakwaters, and coastline.</text>
  <text x="84" y="760" font-size="13" font-family="Arial, sans-serif" fill="#334155">This is the same reference geometry used in Figure B, but shown first without sediment hot-spot overlays.</text>
</svg>