<svg xmlns="http://www.w3.org/2000/svg" viewBox="0 0 1200 420" role="img" aria-labelledby="title desc">
  <title id="title">Dry bulk terminal unloading and loading flow</title>
  <desc id="desc">Conceptual two-way dry bulk flow showing unloading from vessel to stockyard and loading from stockyard to vessel or inland dispatch.</desc>
  <defs>
    <marker id="arrow" markerWidth="10" markerHeight="10" refX="8" refY="5" orient="auto">
      <path d="M0,0 L10,5 L0,10 z" fill="#334155"/>
    </marker>
  </defs>
  <rect width="1200" height="420" fill="#f8fafc"/>
  <rect x="24" y="24" width="1152" height="372" rx="14" fill="#ffffff" stroke="#d6deea" stroke-width="2"/>
  <text x="52" y="58" font-size="24" font-family="Arial, sans-serif" fill="#1f2937" font-weight="700">Dry Bulk Terminal Flow Chain: Unloading and Loading</text>

  <rect x="58" y="76" width="160" height="30" rx="15" fill="#dbeafe" stroke="#93c5fd"/>
  <text x="85" y="96" font-size="14" font-family="Arial, sans-serif" fill="#1e3a8a" font-weight="700">UNLOADING PATH</text>

  <rect x="58" y="156" width="150" height="60" rx="8" fill="#dbeafe" stroke="#93c5fd"/>
  <text x="83" y="191" font-size="18" font-family="Arial, sans-serif" fill="#1e3a8a" font-weight="700">Vessel at Berth</text>
  <path d="M60 138 L175 138 L200 156 L85 156 Z" fill="#94a3b8" stroke="#64748b" stroke-width="2"/>

  <rect x="255" y="118" width="150" height="120" rx="10" fill="#eff6ff" stroke="#bfdbfe"/>
  <text x="283" y="154" font-size="17" font-family="Arial, sans-serif" fill="#1e3a8a" font-weight="700">Ship Unloader</text>
  <text x="292" y="179" font-size="13" font-family="Arial, sans-serif" fill="#334155">Grab / Continuous</text>
  <line x1="214" y1="186" x2="255" y2="186" stroke="#334155" stroke-width="3" marker-end="url(#arrow)"/>

  <rect x="448" y="146" width="118" height="70" rx="10" fill="#fef3c7" stroke="#fbbf24"/>
  <text x="486" y="177" font-size="16" font-family="Arial, sans-serif" fill="#92400e" font-weight="700">Hopper</text>
  <text x="472" y="197" font-size="12.5" font-family="Arial, sans-serif" fill="#7c2d12">Feeder + dust control</text>
  <line x1="405" y1="181" x2="448" y2="181" stroke="#334155" stroke-width="3" marker-end="url(#arrow)"/>

  <rect x="607" y="156" width="170" height="48" rx="8" fill="#dcfce7" stroke="#86efac"/>
  <text x="636" y="186" font-size="17" font-family="Arial, sans-serif" fill="#166534" font-weight="700">Infeed Conveyor</text>
  <line x1="566" y1="181" x2="607" y2="181" stroke="#334155" stroke-width="3" marker-end="url(#arrow)"/>

  <rect x="820" y="96" width="220" height="180" rx="12" fill="#f8fafc" stroke="#cbd5e1"/>
  <text x="885" y="124" font-size="18" font-family="Arial, sans-serif" fill="#0f172a" font-weight="700">Stockyard</text>
  <polygon points="850,220 900,160 955,220" fill="#cbd5e1" stroke="#94a3b8" stroke-width="2"/>
  <polygon points="920,220 970,155 1020,220" fill="#dbeafe" stroke="#93c5fd" stroke-width="2"/>
  <line x1="778" y1="181" x2="820" y2="181" stroke="#334155" stroke-width="3" marker-end="url(#arrow)"/>
  <text x="844" y="250" font-size="13" font-family="Arial, sans-serif" fill="#475569">Buffer storage, blending, surge capacity</text>

  <rect x="1065" y="126" width="88" height="78" rx="10" fill="#fee2e2" stroke="#fca5a5"/>
  <text x="1083" y="152" font-size="15" font-family="Arial, sans-serif" fill="#991b1b" font-weight="700">Plant /</text>
  <text x="1079" y="172" font-size="15" font-family="Arial, sans-serif" fill="#991b1b" font-weight="700">Truck / Rail</text>
  <line x1="1040" y1="165" x2="1065" y2="165" stroke="#334155" stroke-width="3" marker-end="url(#arrow)"/>

  <rect x="58" y="266" width="190" height="30" rx="15" fill="#ede9fe" stroke="#c4b5fd"/>
  <text x="81" y="286" font-size="14" font-family="Arial, sans-serif" fill="#5b21b6" font-weight="700">LOADING / OUTLOADING</text>

  <line x1="930" y1="276" x2="930" y2="304" stroke="#334155" stroke-width="3" marker-end="url(#arrow)"/>

  <rect x="845" y="308" width="150" height="56" rx="10" fill="#f3e8ff" stroke="#d8b4fe"/>
  <text x="875" y="330" font-size="15" font-family="Arial, sans-serif" fill="#6b21a8" font-weight="700">Reclaimer +</text>
  <text x="869" y="349" font-size="14" font-family="Arial, sans-serif" fill="#6b21a8" font-weight="700">Outbound Belt</text>

  <rect x="1010" y="308" width="105" height="56" rx="10" fill="#fff7ed" stroke="#fdba74"/>
  <text x="1028" y="340" font-size="15" font-family="Arial, sans-serif" fill="#9a3412" font-weight="700">Ship Loader</text>
  <line x1="995" y1="336" x2="1010" y2="336" stroke="#334155" stroke-width="3" marker-end="url(#arrow)"/>

  <rect x="1128" y="308" width="45" height="56" rx="8" fill="#e0f2fe" stroke="#7dd3fc"/>
  <text x="1134" y="330" font-size="11.5" font-family="Arial, sans-serif" fill="#0c4a6e" font-weight="700">Export</text>
  <text x="1134" y="346" font-size="11.5" font-family="Arial, sans-serif" fill="#0c4a6e" font-weight="700">Vessel</text>
  <line x1="1115" y1="336" x2="1128" y2="336" stroke="#334155" stroke-width="3" marker-end="url(#arrow)"/>

  <rect x="76" y="374" width="1040" height="28" rx="8" fill="#f8fafc" stroke="#e2e8f0"/>
  <text x="97" y="393" font-size="13.5" font-family="Arial, sans-serif" fill="#475569">Upper lane = unloading to storage; lower lane = loading from stockyard to vessel or inland delivery. The bottleneck still governs total capacity.</text>
</svg>